<?xml version="1.0" encoding="UTF-8"?>
<svg width="777px" height="170px" viewBox="0 0 777 170" version="1.1" xmlns="http://www.w3.org/2000/svg" xmlns:xlink="http://www.w3.org/1999/xlink">
    <title>psmbom_730x170_colors_transparent</title>
    <g id="psmbom_730x170_colors_transparent" stroke="none" stroke-width="1" fill="none" fill-rule="evenodd">
        <path d="M76.736365,53.4227024 C75.4839704,51.3018868 73.1839251,50 70.7004079,50 L50.002659,50 C51.4225714,50.7743077 52.6403989,52.0761945 53.4381024,53.4227024 L69.7458226,81.0221774 C71.0168303,83.1718655 71.0168303,85.8281345 69.7458226,87.9751978 L53.4381024,115.577298 C52.6403989,116.923806 51.4199124,118.225692 50,119 L70.7004079,119 C73.1839251,119 75.4839704,117.695488 76.736365,115.577298 L93.0467442,87.9751978 C94.3177519,85.8281345 94.3177519,83.1718655 93.0467442,81.0221774 L76.736365,53.4227024 Z" id="Fill-61-Copy-2" fill="#81C4FF" transform="translate(72.000000, 84.500000) scale(-1, 1) rotate(-180.000000) translate(-72.000000, -84.500000) "></path>
        <path d="M224.025079,81.0221774 L207.34401,53.4227024 C206.063152,51.3018868 203.710832,50 201.170872,50 L180.002719,50 C181.454903,50.7743077 182.700408,52.0761945 183.516241,53.4227024 L200.194591,81.0221774 C201.494486,83.1718655 201.494486,85.8281345 200.194591,87.9751978 L183.516241,115.577298 C182.700408,116.923806 181.452183,118.225692 180,119 L201.170872,119 C203.710832,119 206.063152,117.695488 207.34401,115.577298 L224.025079,87.9751978 C225.324974,85.8281345 225.324974,83.1718655 224.025079,81.0221774" id="Fill-62-Copy-2" fill="#E7222E"></path>
        <path d="M103.923141,81.0221774 L119.751359,53.4227024 C120.966731,51.3018868 123.198784,50 125.611464,50 L157.389181,50 C159.801862,50 162.031334,51.3018868 163.246705,53.4227024 L179.074924,81.0221774 C180.308359,83.1718655 180.308359,85.8281345 179.074924,87.9751978 L163.246705,115.577298 C162.031334,117.695488 159.801862,119 157.389181,119 L125.611464,119 C123.198784,119 120.966731,117.695488 119.751359,115.577298 L103.923141,87.9751978 C102.692286,85.8281345 102.692286,83.1718655 103.923141,81.0221774" id="Fill-63-Copy-2" fill="#16588E"></path>
        <text id="PSBOM-BB" font-family="BMWGroupCondensed-Bold, BMW Group Condensed" font-size="95" font-style="condensed" font-weight="bold" fill="#FFFFFF">
            <tspan x="247" y="121">PSBOM BB</tspan>
        </text>
    </g>
</svg>